<svg width="163" height="49" viewBox="0 0 163 49" fill="none" xmlns="http://www.w3.org/2000/svg">
<path d="M17.68 41.754C12.352 41.754 6.976 40.17 4 37.866L6.64 32.01C9.472 34.074 13.696 35.514 17.728 35.514C22.336 35.514 24.208 33.978 24.208 31.914C24.208 25.626 4.672 29.946 4.672 17.466C4.672 11.754 9.28 7.00195 18.832 7.00195C23.056 7.00195 27.376 8.00995 30.496 9.97795L28.096 15.882C24.976 14.106 21.76 13.242 18.784 13.242C14.176 13.242 12.4 14.97 12.4 17.082C12.4 23.274 31.936 19.002 31.936 31.338C31.936 36.954 27.28 41.754 17.68 41.754Z" fill="#151515"/>
<path d="M65.7303 7.57795L52.6742 29.274V41.178H44.8982V29.178L31.8902 7.57795H40.1462L49.1222 22.506L58.0982 7.57795H65.7303Z" fill="#151515"/>
<path d="M83.0585 19.3C81.4025 19.3 80.1005 18.826 79.1525 17.878C78.2045 16.93 77.7305 15.544 77.7305 13.72V6.556H79.5305V13.648C79.5305 15.052 79.8365 16.078 80.4485 16.726C81.0725 17.374 81.9485 17.698 83.0765 17.698C84.2165 17.698 85.0925 17.374 85.7045 16.726C86.3285 16.078 86.6405 15.052 86.6405 13.648V6.556H88.3865V13.72C88.3865 15.544 87.9125 16.93 86.9645 17.878C86.0285 18.826 84.7265 19.3 83.0585 19.3Z" fill="#939395"/>
<path d="M92.0767 19.156V6.556H93.8768V19.156H92.0767Z" fill="#939395"/>
<path d="M95.255 20.956L101.195 4H102.761L96.821 20.956H95.255Z" fill="#939395"/>
<path d="M109.197 19.3C107.541 19.3 106.239 18.826 105.291 17.878C104.343 16.93 103.869 15.544 103.869 13.72V6.556H105.669V13.648C105.669 15.052 105.975 16.078 106.587 16.726C107.211 17.374 108.087 17.698 109.215 17.698C110.355 17.698 111.231 17.374 111.843 16.726C112.467 16.078 112.779 15.052 112.779 13.648V6.556H114.525V13.72C114.525 15.544 114.051 16.93 113.103 17.878C112.167 18.826 110.865 19.3 109.197 19.3Z" fill="#939395"/>
<path d="M116.384 19.156L121.622 12.01V13.396L116.672 6.556H118.724L122.648 11.938L121.838 11.956L125.744 6.556H127.706L122.792 13.288V11.992L128.03 19.156H125.96L121.784 13.414H122.576L118.454 19.156H116.384Z" fill="#939395"/>
<path d="M77.8385 41.156V28.556H83.1485C84.4925 28.556 85.6745 28.82 86.6945 29.348C87.7265 29.876 88.5245 30.614 89.0885 31.562C89.6645 32.51 89.9525 33.608 89.9525 34.856C89.9525 36.104 89.6645 37.202 89.0885 38.15C88.5245 39.098 87.7265 39.836 86.6945 40.364C85.6745 40.892 84.4925 41.156 83.1485 41.156H77.8385ZM79.6385 39.59H83.0405C84.0845 39.59 84.9845 39.392 85.7405 38.996C86.5085 38.6 87.1025 38.048 87.5225 37.34C87.9425 36.62 88.1525 35.792 88.1525 34.856C88.1525 33.908 87.9425 33.08 87.5225 32.372C87.1025 31.664 86.5085 31.112 85.7405 30.716C84.9845 30.32 84.0845 30.122 83.0405 30.122H79.6385V39.59Z" fill="#939395"/>
<path d="M96.7056 41.264C95.6856 41.264 94.7856 41.054 94.0056 40.634C93.2376 40.214 92.6376 39.638 92.2056 38.906C91.7856 38.174 91.5756 37.334 91.5756 36.386C91.5756 35.438 91.7796 34.598 92.1876 33.866C92.6076 33.134 93.1776 32.564 93.8976 32.156C94.6296 31.736 95.4516 31.526 96.3636 31.526C97.2876 31.526 98.1036 31.73 98.8116 32.138C99.5196 32.546 100.072 33.122 100.468 33.866C100.876 34.598 101.08 35.456 101.08 36.44C101.08 36.512 101.074 36.596 101.062 36.692C101.062 36.788 101.056 36.878 101.044 36.962H92.9256V35.72H100.144L99.4416 36.152C99.4536 35.54 99.3276 34.994 99.0636 34.514C98.7996 34.034 98.4336 33.662 97.9656 33.398C97.5096 33.122 96.9756 32.984 96.3636 32.984C95.7636 32.984 95.2296 33.122 94.7616 33.398C94.2936 33.662 93.9276 34.04 93.6636 34.532C93.3996 35.012 93.2676 35.564 93.2676 36.188V36.476C93.2676 37.112 93.4116 37.682 93.6996 38.186C93.9996 38.678 94.4136 39.062 94.9416 39.338C95.4696 39.614 96.0756 39.752 96.7596 39.752C97.3236 39.752 97.8336 39.656 98.2896 39.464C98.7576 39.272 99.1656 38.984 99.5136 38.6L100.468 39.716C100.036 40.22 99.4956 40.604 98.8476 40.868C98.2116 41.132 97.4976 41.264 96.7056 41.264Z" fill="#939395"/>
<path d="M106.215 41.264C105.423 41.264 104.667 41.156 103.947 40.94C103.239 40.724 102.681 40.46 102.273 40.148L102.993 38.78C103.401 39.056 103.905 39.29 104.505 39.482C105.105 39.674 105.717 39.77 106.341 39.77C107.145 39.77 107.721 39.656 108.069 39.428C108.429 39.2 108.609 38.882 108.609 38.474C108.609 38.174 108.501 37.94 108.285 37.772C108.069 37.604 107.781 37.478 107.421 37.394C107.073 37.31 106.683 37.238 106.251 37.178C105.819 37.106 105.387 37.022 104.955 36.926C104.523 36.818 104.127 36.674 103.767 36.494C103.407 36.302 103.119 36.044 102.903 35.72C102.687 35.384 102.579 34.94 102.579 34.388C102.579 33.812 102.741 33.308 103.065 32.876C103.389 32.444 103.845 32.114 104.433 31.886C105.033 31.646 105.741 31.526 106.557 31.526C107.181 31.526 107.811 31.604 108.447 31.76C109.095 31.904 109.623 32.114 110.031 32.39L109.293 33.758C108.861 33.47 108.411 33.272 107.943 33.164C107.475 33.056 107.007 33.002 106.539 33.002C105.783 33.002 105.219 33.128 104.847 33.38C104.475 33.62 104.289 33.932 104.289 34.316C104.289 34.64 104.397 34.892 104.613 35.072C104.841 35.24 105.129 35.372 105.477 35.468C105.837 35.564 106.233 35.648 106.665 35.72C107.097 35.78 107.529 35.864 107.961 35.972C108.393 36.068 108.783 36.206 109.131 36.386C109.491 36.566 109.779 36.818 109.995 37.142C110.223 37.466 110.337 37.898 110.337 38.438C110.337 39.014 110.169 39.512 109.833 39.932C109.497 40.352 109.023 40.682 108.411 40.922C107.799 41.15 107.067 41.264 106.215 41.264Z" fill="#939395"/>
<path d="M112.497 41.156V31.616H114.225V41.156H112.497ZM113.361 29.78C113.025 29.78 112.743 29.672 112.515 29.456C112.299 29.24 112.191 28.976 112.191 28.664C112.191 28.34 112.299 28.07 112.515 27.854C112.743 27.638 113.025 27.53 113.361 27.53C113.697 27.53 113.973 27.638 114.189 27.854C114.417 28.058 114.531 28.316 114.531 28.628C114.531 28.952 114.423 29.228 114.207 29.456C113.991 29.672 113.709 29.78 113.361 29.78Z" fill="#939395"/>
<path d="M121.7 44.756C120.824 44.756 119.972 44.63 119.144 44.378C118.328 44.138 117.662 43.79 117.146 43.334L117.974 42.002C118.418 42.386 118.964 42.686 119.612 42.902C120.26 43.13 120.938 43.244 121.646 43.244C122.774 43.244 123.602 42.98 124.13 42.452C124.658 41.924 124.922 41.12 124.922 40.04V38.024L125.102 36.134L125.012 34.226V31.616H126.65V39.86C126.65 41.54 126.23 42.776 125.39 43.568C124.55 44.36 123.32 44.756 121.7 44.756ZM121.484 40.76C120.56 40.76 119.732 40.568 119 40.184C118.28 39.788 117.704 39.242 117.272 38.546C116.852 37.85 116.642 37.046 116.642 36.134C116.642 35.21 116.852 34.406 117.272 33.722C117.704 33.026 118.28 32.486 119 32.102C119.732 31.718 120.56 31.526 121.484 31.526C122.3 31.526 123.044 31.694 123.716 32.03C124.388 32.354 124.922 32.858 125.318 33.542C125.726 34.226 125.93 35.09 125.93 36.134C125.93 37.166 125.726 38.024 125.318 38.708C124.922 39.392 124.388 39.908 123.716 40.256C123.044 40.592 122.3 40.76 121.484 40.76ZM121.682 39.248C122.318 39.248 122.882 39.116 123.374 38.852C123.866 38.588 124.25 38.222 124.526 37.754C124.814 37.286 124.958 36.746 124.958 36.134C124.958 35.522 124.814 34.982 124.526 34.514C124.25 34.046 123.866 33.686 123.374 33.434C122.882 33.17 122.318 33.038 121.682 33.038C121.046 33.038 120.476 33.17 119.972 33.434C119.48 33.686 119.09 34.046 118.802 34.514C118.526 34.982 118.388 35.522 118.388 36.134C118.388 36.746 118.526 37.286 118.802 37.754C119.09 38.222 119.48 38.588 119.972 38.852C120.476 39.116 121.046 39.248 121.682 39.248Z" fill="#939395"/>
<path d="M135.046 31.526C135.826 31.526 136.51 31.676 137.098 31.976C137.698 32.276 138.166 32.732 138.502 33.344C138.838 33.956 139.006 34.73 139.006 35.666V41.156H137.278V35.864C137.278 34.94 137.05 34.244 136.594 33.776C136.15 33.308 135.52 33.074 134.704 33.074C134.092 33.074 133.558 33.194 133.102 33.434C132.646 33.674 132.292 34.028 132.04 34.496C131.8 34.964 131.68 35.546 131.68 36.242V41.156H129.952V31.616H131.608V34.19L131.338 33.506C131.65 32.882 132.13 32.396 132.778 32.048C133.426 31.7 134.182 31.526 135.046 31.526Z" fill="#939395"/>
<path d="M146.452 41.264C145.432 41.264 144.532 41.054 143.752 40.634C142.984 40.214 142.384 39.638 141.952 38.906C141.532 38.174 141.322 37.334 141.322 36.386C141.322 35.438 141.526 34.598 141.934 33.866C142.354 33.134 142.924 32.564 143.644 32.156C144.376 31.736 145.198 31.526 146.11 31.526C147.034 31.526 147.85 31.73 148.558 32.138C149.266 32.546 149.818 33.122 150.214 33.866C150.622 34.598 150.826 35.456 150.826 36.44C150.826 36.512 150.82 36.596 150.808 36.692C150.808 36.788 150.802 36.878 150.79 36.962H142.672V35.72H149.89L149.188 36.152C149.2 35.54 149.074 34.994 148.81 34.514C148.546 34.034 148.18 33.662 147.712 33.398C147.256 33.122 146.722 32.984 146.11 32.984C145.51 32.984 144.976 33.122 144.508 33.398C144.04 33.662 143.674 34.04 143.41 34.532C143.146 35.012 143.014 35.564 143.014 36.188V36.476C143.014 37.112 143.158 37.682 143.446 38.186C143.746 38.678 144.16 39.062 144.688 39.338C145.216 39.614 145.822 39.752 146.506 39.752C147.07 39.752 147.58 39.656 148.036 39.464C148.504 39.272 148.912 38.984 149.26 38.6L150.214 39.716C149.782 40.22 149.242 40.604 148.594 40.868C147.958 41.132 147.244 41.264 146.452 41.264Z" fill="#939395"/>
<path d="M153.225 41.156V31.616H154.881V34.208L154.719 33.56C154.983 32.9 155.427 32.396 156.051 32.048C156.675 31.7 157.443 31.526 158.355 31.526V33.2C158.283 33.188 158.211 33.182 158.139 33.182C158.079 33.182 158.019 33.182 157.959 33.182C157.035 33.182 156.303 33.458 155.763 34.01C155.223 34.562 154.953 35.36 154.953 36.404V41.156H153.225Z" fill="#939395"/>
</svg>
