<svg width="125" height="125" viewBox="0 0 125 125" fill="none" xmlns="http://www.w3.org/2000/svg">
<path d="M54.2026 16.9192C53.9722 16.954 53.7619 16.9024 53.5716 16.7645C53.3808 16.6238 53.2678 16.4369 53.2327 16.2037C53.1979 15.9734 53.2511 15.7642 53.3922 15.5763C53.5329 15.3855 53.7185 15.2727 53.9488 15.2379C54.1792 15.2032 54.3897 15.2561 54.5805 15.3968C54.7708 15.5347 54.8833 15.7188 54.9181 15.9492C54.9414 16.1037 54.9235 16.2515 54.8643 16.3926C54.8076 16.5304 54.7217 16.6468 54.6067 16.7418C54.4918 16.8367 54.3571 16.8959 54.2026 16.9192Z" fill="black"/>
<path d="M34.8964 20.2014L36.7697 23.6065L35.6535 24.221L32.4986 18.4861L33.57 17.8963L34.0835 18.8297L34.1544 18.7906C34.1192 18.4143 34.1916 18.0567 34.3715 17.7177C34.5538 17.3773 34.8603 17.0886 35.2908 16.8515C35.6816 16.6364 36.0689 16.5301 36.453 16.5327C36.8356 16.5329 37.1962 16.6489 37.5346 16.881C37.873 17.113 38.1723 17.4655 38.4325 17.9384L40.4392 21.5862L39.323 22.2007L37.3902 18.6873C37.1616 18.2717 36.8746 18.0064 36.5294 17.8917C36.1828 17.7744 35.8203 17.8199 35.4421 18.0282C35.1832 18.1707 34.9839 18.3534 34.8439 18.5764C34.7064 18.798 34.6388 19.0493 34.6409 19.3303C34.6442 19.6074 34.7294 19.8977 34.8964 20.2014Z" fill="black"/>
<path d="M23.5842 36.45L17.3662 33.6429L18.2244 32.6442L22.7048 34.8056L22.7465 34.7572L19.9408 30.6469L20.799 29.6482L25.2605 31.7989L25.3021 31.7505L22.5043 27.6637L23.3625 26.6651L27.0725 32.3906L26.2254 33.3763L21.7759 31.3033L21.712 31.3776L24.4285 35.4674L23.5842 36.45Z" fill="black"/>
<path d="M18.373 48.3713C18.162 48.9475 17.8458 49.4019 17.4244 49.7346C17.003 50.0673 16.5115 50.2653 15.9497 50.3287C15.388 50.3921 14.7897 50.3075 14.1549 50.0748C13.5174 49.8411 13.0034 49.518 12.6129 49.1056C12.2224 48.6932 11.9737 48.2238 11.867 47.6975C11.7602 47.1713 11.8123 46.62 12.0234 46.0438C12.2344 45.4676 12.5506 45.0132 12.972 44.6805C13.3934 44.3478 13.8863 44.1502 14.4507 44.0878C15.0151 44.0254 15.616 44.111 16.2535 44.3447C16.8884 44.5774 17.3997 44.8995 17.7875 45.3109C18.1754 45.7224 18.4227 46.1913 18.5294 46.7175C18.6362 47.2438 18.5841 47.7951 18.373 48.3713ZM17.3702 47.9992C17.507 47.6257 17.5217 47.2801 17.4142 46.9623C17.3067 46.6445 17.1104 46.3668 16.8253 46.1292C16.5412 45.8889 16.2017 45.6964 15.8069 45.5517C15.4148 45.408 15.0328 45.336 14.6607 45.3358C14.287 45.3319 13.9551 45.416 13.6652 45.5881C13.3752 45.7602 13.1619 46.033 13.0251 46.4064C12.8873 46.7826 12.873 47.1314 12.9822 47.4528C13.0924 47.7715 13.2909 48.0515 13.5777 48.2928C13.8628 48.5305 14.2014 48.7211 14.5935 48.8649C14.9882 49.0096 15.3711 49.0834 15.7422 49.0862C16.1143 49.0865 16.4439 49 16.7312 48.827C17.0195 48.6512 17.2325 48.3753 17.3702 47.9992Z" fill="black"/>
<path d="M16.2587 62.8054C16.236 63.3333 16.0809 63.7987 15.7935 64.2015C15.5033 64.6013 15.1019 64.9082 14.5894 65.1221C14.0742 65.3331 13.4632 65.4234 12.7565 65.393C12.0498 65.3626 11.4503 65.2188 10.958 64.9616C10.4659 64.7015 10.0954 64.3586 9.8464 63.9327C9.59742 63.5068 9.48422 63.0313 9.50681 62.5063C9.52426 62.1004 9.60642 61.7769 9.75328 61.5359C9.89742 61.2918 10.0618 61.1055 10.2465 60.977C10.4313 60.8456 10.5935 60.7445 10.733 60.6738L10.7363 60.5971L7.49639 60.4577L7.55113 59.1847L16.2703 59.56L16.2169 60.8032L15.1993 60.7594L15.1948 60.8658C15.3305 60.9484 15.4847 61.066 15.6573 61.2184C15.83 61.368 15.9777 61.5706 16.1004 61.8261C16.223 62.0816 16.2758 62.4081 16.2587 62.8054ZM15.1852 62.4777C15.2009 62.1116 15.1177 61.798 14.9356 61.5371C14.7507 61.2732 14.488 61.0686 14.1473 60.9231C13.8068 60.7748 13.4066 60.6908 12.9468 60.671C12.4927 60.6514 12.0925 60.6996 11.7463 60.8155C11.4001 60.9314 11.1265 61.1116 10.9254 61.356C10.7244 61.6004 10.6159 61.9085 10.5999 62.2803C10.5834 62.6635 10.669 62.9871 10.8567 63.2511C11.0444 63.5151 11.3072 63.7198 11.645 63.8651C11.9829 64.0076 12.3676 64.0881 12.799 64.1067C13.2361 64.1255 13.632 64.0772 13.9868 63.9616C14.3415 63.8461 14.6265 63.665 14.8419 63.4183C15.0545 63.1687 15.1689 62.8552 15.1852 62.4777Z" fill="black"/>
<path d="M10.144 78.9025L18.4579 76.2484L18.8451 77.4623L10.5312 80.1164L10.144 78.9025Z" fill="black"/>
<path d="M12.6387 85.2234L20.5584 81.5568L21.0934 82.7132L13.1737 86.3798L12.6387 85.2234Z" fill="black"/>
<path d="M26.896 91.364C27.2657 91.8538 27.4762 92.3659 27.5273 92.9005C27.5785 93.4351 27.4786 93.9557 27.2275 94.4624C26.9763 94.969 26.5811 95.4261 26.0416 95.8337C25.4999 96.243 24.95 96.5001 24.3919 96.6048C23.8338 96.7096 23.3048 96.6642 22.8048 96.4688C22.3048 96.2733 21.8699 95.9307 21.5002 95.4409C21.1304 94.9512 20.92 94.439 20.8688 93.9044C20.8176 93.3698 20.9187 92.8484 21.1721 92.34C21.4255 91.8317 21.823 91.3728 22.3647 90.9635C22.9042 90.5559 23.4518 90.3006 24.0077 90.1975C24.5635 90.0945 25.0914 90.1407 25.5914 90.3362C26.0913 90.5317 26.5262 90.8743 26.896 91.364ZM26.04 92.0054C25.8003 91.688 25.5179 91.4884 25.1927 91.4065C24.8675 91.3247 24.5278 91.3392 24.1737 91.4501C23.8179 91.5587 23.4722 91.7397 23.1368 91.9932C22.8036 92.2449 22.5361 92.5272 22.3343 92.8398C22.1286 93.152 22.0194 93.4766 22.0069 93.8136C21.9944 94.1506 22.108 94.4779 22.3476 94.7953C22.589 95.115 22.8742 95.316 23.2034 95.3984C23.5309 95.4786 23.8737 95.4635 24.2318 95.3532C24.5859 95.2423 24.9296 95.0609 25.2628 94.8092C25.5982 94.5557 25.8677 94.2738 26.0712 93.9634C26.273 93.6507 26.379 93.3267 26.3892 92.9914C26.3978 92.6538 26.2813 92.3251 26.04 92.0054Z" fill="black"/>
<path d="M35.5676 99.5977L31.4703 104.702L30.5102 103.931L31.1611 103.12L31.1079 103.077C30.7944 103.277 30.4571 103.362 30.0961 103.33C29.7311 103.299 29.3991 103.164 29.1001 102.924C29.0381 102.874 28.9668 102.813 28.8861 102.741C28.8033 102.667 28.7402 102.607 28.6968 102.561L29.4597 101.611C29.4907 101.654 29.5518 101.723 29.643 101.818C29.7325 101.916 29.8281 102.005 29.93 102.087C30.1648 102.276 30.4141 102.394 30.6779 102.442C30.9378 102.49 31.1911 102.47 31.4379 102.38C31.6829 102.293 31.8943 102.138 32.0722 101.917L34.5743 98.7997L35.5676 99.5977Z" fill="black"/>
<path d="M44.3533 104.26C44.927 104.529 45.3601 104.89 45.6526 105.344C45.9414 105.8 46.0886 106.309 46.0943 106.874C46.1 107.438 45.9637 108.017 45.6855 108.611C45.4037 109.213 45.0418 109.692 44.5998 110.046C44.1566 110.403 43.6684 110.615 43.1351 110.682C42.6019 110.75 42.0561 110.652 41.4979 110.391C41.0476 110.18 40.6855 109.908 40.4113 109.576C40.1359 109.246 39.96 108.881 39.8836 108.482C39.8047 108.081 39.838 107.671 39.9835 107.253L41.1064 107.779C41.0381 108.086 41.0676 108.392 41.1949 108.696C41.3196 108.999 41.5659 109.237 41.9338 109.409C42.2554 109.56 42.5768 109.607 42.8981 109.55C43.2157 109.495 43.5142 109.343 43.7937 109.095C44.072 108.848 44.3099 108.514 44.5074 108.092C44.7098 107.66 44.8188 107.256 44.8345 106.881C44.8503 106.506 44.7788 106.176 44.6203 105.891C44.4591 105.606 44.2152 105.386 43.8885 105.233C43.6698 105.131 43.4531 105.078 43.2382 105.074C43.0196 105.072 42.8143 105.119 42.6223 105.214C42.4278 105.308 42.2561 105.45 42.1072 105.641L40.9843 105.115C41.2049 104.751 41.4899 104.467 41.8391 104.264C42.1884 104.06 42.5784 103.954 43.0089 103.946C43.4369 103.936 43.885 104.041 44.3533 104.26Z" fill="black"/>
<path d="M53.3203 112.114L54.493 112.098C54.517 112.251 54.5701 112.402 54.6525 112.551C54.732 112.699 54.8519 112.829 55.012 112.942C55.1722 113.054 55.3827 113.132 55.6435 113.174C55.9996 113.232 56.3098 113.2 56.5741 113.079C56.838 112.961 56.9902 112.777 57.0307 112.527C57.0658 112.312 57.0142 112.125 56.8757 111.967C56.7373 111.809 56.4969 111.659 56.1544 111.517L55.1664 111.115C54.5943 110.881 54.1856 110.597 53.9405 110.263C53.6953 109.93 53.6099 109.535 53.6841 109.078C53.747 108.691 53.9152 108.364 54.1887 108.098C54.459 107.834 54.8071 107.648 55.2331 107.542C55.6563 107.435 56.1286 107.424 56.6502 107.509C57.3736 107.627 57.9388 107.877 58.3458 108.26C58.7523 108.645 58.9609 109.133 58.9718 109.722L57.7261 109.709C57.7019 109.38 57.5852 109.115 57.3761 108.914C57.1665 108.716 56.8725 108.586 56.4939 108.524C56.0817 108.457 55.7383 108.489 55.4638 108.62C55.1888 108.754 55.031 108.946 54.9904 109.195C54.9576 109.397 55.0058 109.579 55.1349 109.741C55.2612 109.903 55.4729 110.043 55.7699 110.164L56.8246 110.581C57.4051 110.817 57.8154 111.108 58.0555 111.455C58.2928 111.802 58.374 112.205 58.2993 112.665C58.2374 113.046 58.0766 113.362 57.817 113.614C57.5574 113.865 57.2268 114.04 56.8251 114.139C56.4229 114.24 55.9792 114.252 55.4941 114.173C54.7959 114.059 54.2709 113.819 53.9191 113.451C53.5669 113.085 53.3673 112.64 53.3203 112.114Z" fill="black"/>
<path d="M71.1168 106.945C71.3462 106.904 71.5578 106.95 71.7517 107.083C71.9462 107.219 72.0641 107.403 72.1055 107.635C72.1464 107.864 72.0989 108.074 71.9628 108.266C71.8272 108.461 71.6448 108.578 71.4155 108.619C71.1861 108.66 70.9742 108.613 70.7798 108.477C70.5859 108.345 70.4684 108.164 70.4275 107.934C70.4001 107.78 70.414 107.632 70.4694 107.49C70.5224 107.35 70.6052 107.232 70.7175 107.134C70.8299 107.036 70.963 106.973 71.1168 106.945Z" fill="black"/>
<path d="M90.3287 103.148L88.365 99.7939L89.4644 99.1498L92.7716 104.798L91.7164 105.417L91.1781 104.497L91.1082 104.538C91.1535 104.913 91.0907 105.273 90.9199 105.617C90.7467 105.962 90.4481 106.259 90.0241 106.507C89.6392 106.732 89.2548 106.849 88.8709 106.857C88.4883 106.867 88.1248 106.76 87.7803 106.538C87.4359 106.315 87.1272 105.97 86.8545 105.505L84.7509 101.912L85.8502 101.268L87.8763 104.728C88.116 105.137 88.41 105.395 88.7582 105.5C89.1078 105.608 89.4689 105.553 89.8414 105.335C90.0963 105.185 90.2908 104.997 90.4247 104.771C90.5562 104.546 90.6171 104.293 90.6074 104.012C90.5967 103.735 90.5038 103.447 90.3287 103.148Z" fill="black"/>
<path d="M101.202 86.6022L107.493 89.2419L106.661 90.2632L102.125 88.2224L102.084 88.272L104.999 92.3057L104.168 93.327L99.6505 91.2964L99.6101 91.346L102.516 95.3564L101.685 96.3776L97.8232 90.7534L98.6436 89.7454L103.147 91.6986L103.209 91.6226L100.384 87.6069L101.202 86.6022Z" fill="black"/>
<path d="M106.092 74.5457C106.288 73.9641 106.591 73.5013 107.004 73.1575C107.416 72.8136 107.902 72.6025 108.462 72.5241C109.022 72.4457 109.622 72.5144 110.263 72.73C110.907 72.9465 111.429 73.2557 111.83 73.6575C112.232 74.0593 112.493 74.5219 112.614 75.0451C112.735 75.5683 112.697 76.1208 112.502 76.7024C112.306 77.2841 112.002 77.7468 111.59 78.0907C111.177 78.4345 110.69 78.6452 110.128 78.7227C109.565 78.8001 108.962 78.7306 108.318 78.5141C107.678 78.2985 107.158 77.9902 106.759 77.5893C106.36 77.1883 106.101 76.7263 105.98 76.203C105.859 75.6798 105.896 75.1274 106.092 74.5457ZM107.104 74.8909C106.978 75.2679 106.972 75.6137 107.088 75.9285C107.204 76.2433 107.408 76.5156 107.699 76.7456C107.99 76.9782 108.334 77.1615 108.733 77.2956C109.128 77.4288 109.512 77.4905 109.884 77.4808C110.258 77.4746 110.587 77.3817 110.873 77.2019C111.158 77.0221 111.364 76.7437 111.491 76.3667C111.618 75.987 111.623 75.638 111.505 75.3196C111.387 75.0039 111.181 74.7293 110.888 74.4958C110.596 74.2659 110.253 74.0843 109.857 73.9512C109.458 73.8171 109.074 73.7536 108.703 73.7606C108.331 73.7703 108.004 73.8656 107.721 74.0463C107.438 74.2296 107.232 74.5112 107.104 74.8909Z" fill="black"/>
<path d="M107.82 60.0603C107.829 59.5319 107.971 59.0626 108.248 58.6523C108.527 58.2448 108.92 57.9273 109.427 57.6997C109.936 57.475 110.545 57.3684 111.252 57.3799C111.959 57.3914 112.562 57.5191 113.061 57.763C113.56 58.0098 113.94 58.3427 114.2 58.7618C114.46 59.1808 114.586 59.6531 114.578 60.1786C114.571 60.5848 114.497 60.9103 114.357 61.1553C114.22 61.4031 114.06 61.5937 113.879 61.7271C113.698 61.8634 113.538 61.9688 113.401 62.0433L113.4 62.1199L116.642 62.1726L116.621 63.4466L107.895 63.3048L107.915 62.0607L108.934 62.0772L108.936 61.9707C108.798 61.8917 108.64 61.7784 108.464 61.6306C108.287 61.4857 108.134 61.2871 108.005 61.035C107.875 60.7829 107.814 60.4579 107.82 60.0603ZM108.902 60.3591C108.896 60.7256 108.988 61.0368 109.177 61.2927C109.369 61.5515 109.637 61.7491 109.981 61.8854C110.325 62.0245 110.728 62.0978 111.188 62.1053C111.642 62.1127 112.041 62.0538 112.384 61.9287C112.727 61.8036 112.996 61.6162 113.19 61.3664C113.385 61.1167 113.485 60.8058 113.491 60.4337C113.497 60.0502 113.403 59.7291 113.208 59.4702C113.014 59.2113 112.745 59.0137 112.404 58.8775C112.062 58.7441 111.675 58.6739 111.244 58.6668C110.806 58.6597 110.412 58.7187 110.06 58.8437C109.709 58.9687 109.429 59.1573 109.22 59.4096C109.014 59.6648 108.908 59.9814 108.902 60.3591Z" fill="black"/>
<path d="M113.502 43.8051L105.262 46.6808L104.843 45.4777L113.083 42.602L113.502 43.8051Z" fill="black"/>
<path d="M110.838 37.5531L103.02 41.4304L102.454 40.2887L110.273 36.4114L110.838 37.5531Z" fill="black"/>
<path d="M96.4235 31.7965C96.0408 31.3168 95.8167 30.8104 95.7513 30.2774C95.6858 29.7444 95.7718 29.2213 96.0093 28.7081C96.2467 28.1949 96.6296 27.7274 97.158 27.3055C97.6886 26.8818 98.2314 26.6102 98.7865 26.4905C99.3416 26.3709 99.8716 26.402 100.377 26.5841C100.882 26.7661 101.326 27.097 101.708 27.5767C102.091 28.0563 102.315 28.5627 102.381 29.0957C102.446 29.6287 102.359 30.1527 102.119 30.6677C101.88 31.1826 101.494 31.6519 100.964 32.0756C100.435 32.4975 99.8948 32.7674 99.342 32.8852C98.7891 33.0031 98.2602 32.9711 97.7552 32.789C97.2501 32.607 96.8062 32.2761 96.4235 31.7965ZM97.262 31.1324C97.5101 31.4433 97.7977 31.6353 98.125 31.7084C98.4523 31.7815 98.7915 31.7579 99.1425 31.6376C99.4953 31.5195 99.836 31.3293 100.165 31.0669C100.491 30.8064 100.751 30.5171 100.944 30.1991C101.141 29.8816 101.242 29.5542 101.245 29.217C101.249 28.8797 101.126 28.5556 100.878 28.2447C100.629 27.9316 100.338 27.7383 100.007 27.6647C99.6773 27.5933 99.335 27.6176 98.98 27.7375C98.629 27.8578 98.2903 28.0482 97.964 28.3088C97.6354 28.5712 97.3736 28.8602 97.1785 29.176C96.9851 29.4939 96.8878 29.8207 96.8866 30.1561C96.887 30.4939 97.0122 30.8193 97.262 31.1324Z" fill="black"/>
<path d="M87.5345 23.7977L91.4938 18.5855L92.4742 19.3308L91.8452 20.1588L91.8995 20.2001C92.2076 19.9918 92.5425 19.8984 92.9042 19.92C93.2699 19.9411 93.6054 20.0677 93.9108 20.2998C93.9741 20.348 94.047 20.407 94.1295 20.4768C94.2143 20.5484 94.2789 20.6065 94.3235 20.6511L93.5863 21.6216C93.5542 21.5794 93.4913 21.5119 93.3976 21.4192C93.3056 21.3243 93.2076 21.2373 93.1035 21.1582C92.8638 20.976 92.6114 20.8644 92.3464 20.8235C92.0853 20.782 91.8326 20.8094 91.5883 20.9056C91.3457 20.9995 91.1385 21.1596 90.9666 21.3858L88.5488 24.5688L87.5345 23.7977Z" fill="black"/>
<path d="M78.6269 19.3718C78.0462 19.1185 77.6036 18.7689 77.299 18.323C76.9981 17.8757 76.8373 17.37 76.8166 16.8062C76.7958 16.2423 76.9165 15.6596 77.1787 15.058C77.4443 14.4486 77.7933 13.9608 78.2257 13.5946C78.6591 13.2258 79.1415 13.0007 79.6728 12.9194C80.204 12.8381 80.7522 12.9207 81.3173 13.1672C81.773 13.366 82.1423 13.6278 82.4253 13.9527C82.7093 14.275 82.8949 14.6349 82.982 15.0324C83.0716 15.4311 83.0493 15.8413 82.9151 16.2631L81.7784 15.7673C81.8385 15.4588 81.8009 15.1541 81.6655 14.8533C81.5327 14.5536 81.2801 14.3226 80.9077 14.1602C80.5822 14.0182 80.2596 13.9797 79.94 14.0449C79.624 14.1085 79.3297 14.2683 79.0569 14.5244C78.7853 14.7779 78.5564 15.1181 78.3702 15.5452C78.1795 15.9827 78.0814 16.3893 78.0757 16.765C78.07 17.1406 78.1502 17.4685 78.3163 17.7486C78.485 18.0299 78.7348 18.2427 79.0655 18.3869C79.2868 18.4835 79.5049 18.5306 79.7198 18.5282C79.9384 18.5244 80.1423 18.4723 80.3317 18.3721C80.5237 18.2729 80.6915 18.1261 80.8352 17.9315L81.9718 18.4273C81.761 18.7972 81.4837 19.0884 81.14 19.3011C80.7963 19.5138 80.4093 19.6302 79.9791 19.6502C79.5515 19.6714 79.1008 19.5786 78.6269 19.3718Z" fill="black"/>
<path d="M69.4525 11.7612L68.2806 11.8091C68.2526 11.6562 68.1954 11.5066 68.1091 11.3602C68.0256 11.2142 67.9023 11.0871 67.7392 10.979C67.5761 10.871 67.3636 10.7992 67.1018 10.7638C66.7442 10.7155 66.435 10.7554 66.174 10.8835C65.9134 11.0088 65.7661 11.1967 65.7323 11.4473C65.703 11.664 65.7596 11.8494 65.9022 12.0035C66.0448 12.1575 66.2892 12.3009 66.6353 12.4337L67.6337 12.8096C68.2119 13.0282 68.628 13.3009 68.882 13.6277C69.136 13.9544 69.232 14.3473 69.17 14.8062C69.1175 15.1947 68.9581 15.5257 68.6918 15.7993C68.4286 16.0705 68.0856 16.2649 67.6626 16.3826C67.2425 16.5006 66.7706 16.5243 66.2469 16.4534C65.5206 16.3552 64.9489 16.1202 64.5318 15.7485C64.1152 15.3739 63.8936 14.8924 63.867 14.304L65.1125 14.2833C65.1456 14.6117 65.2693 14.8735 65.4837 15.0688C65.6985 15.2612 65.9959 15.3832 66.376 15.4346C66.7898 15.4905 67.1322 15.4494 67.4032 15.3112C67.6745 15.1701 67.8271 14.9743 67.861 14.7238C67.8884 14.521 67.8354 14.3404 67.702 14.1819C67.5714 14.0238 67.3561 13.8886 67.0559 13.7763L65.9905 13.3871C65.4038 13.1673 64.9859 12.8872 64.7366 12.5467C64.4901 12.2067 64.3981 11.8058 64.4605 11.3441C64.5122 10.9612 64.6645 10.6406 64.9173 10.3824C65.17 10.1242 65.4959 9.94034 65.8948 9.83088C66.2941 9.71861 66.7373 9.69541 67.2243 9.76128C67.9253 9.85608 68.4566 10.0827 68.8181 10.4412C69.18 10.7969 69.3914 11.2369 69.4525 11.7612Z" fill="black"/>
</svg>
